<svg width="19" height="12" viewBox="0 0 19 12" fill="none" xmlns="http://www.w3.org/2000/svg">
<path d="M0.0899963 9.68652V2.37852C0.0899963 1.76652 0.305996 1.23852 0.737996 0.794524C1.17 0.350524 1.704 0.128524 2.34 0.128524H15.84C16.476 0.128524 17.01 0.350524 17.442 0.794524C17.874 1.23852 18.09 1.76652 18.09 2.37852V9.68652C18.09 10.3225 17.874 10.8565 17.442 11.2885C17.01 11.7205 16.476 11.9365 15.84 11.9365H2.34C1.704 11.9365 1.17 11.7205 0.737996 11.2885C0.305996 10.8565 0.0899963 10.3225 0.0899963 9.68652ZM1.224 9.68652C1.224 9.99852 1.332 10.2625 1.548 10.4785C1.764 10.6945 2.028 10.8085 2.34 10.8205H15.84C16.14 10.8205 16.404 10.7065 16.632 10.4785C16.86 10.2505 16.968 9.98652 16.956 9.68652L12.564 6.39252L10.116 8.21052C9.804 8.45052 9.462 8.57052 9.09 8.57052C8.718 8.57052 8.376 8.45052 8.064 8.21052L5.616 6.39252L1.224 9.68652ZM1.224 8.98452L5.148 6.03252L1.224 3.08052V8.98452ZM1.224 2.37852L5.616 5.69052L6.102 6.03252L8.424 7.79652C8.616 7.94052 8.838 8.01252 9.09 8.01252C9.342 8.01252 9.564 7.94052 9.756 7.79652L16.956 2.37852C16.956 2.07852 16.848 1.81452 16.632 1.58652C16.416 1.35852 16.152 1.25052 15.84 1.26252H2.34C2.04 1.26252 1.776 1.37052 1.548 1.58652C1.32 1.80252 1.212 2.06652 1.224 2.37852ZM13.032 6.03252L16.956 8.98452V3.08052L13.032 6.03252Z" fill="#FF0000"/>
</svg>
