<svg width="11" height="19" viewBox="0 0 11 19" fill="none" xmlns="http://www.w3.org/2000/svg">
<path d="M9.05 0.500626C9.554 0.500626 9.98 0.674625 10.328 1.02262C10.676 1.37062 10.85 1.79663 10.85 2.30063V16.3406C10.85 16.8206 10.676 17.2406 10.328 17.6006C9.98 17.9606 9.554 18.1406 9.05 18.1406H2.21C1.73 18.1406 1.31 17.9606 0.950004 17.6006C0.590004 17.2406 0.410004 16.8206 0.410004 16.3406V2.30063C0.410004 1.79663 0.590004 1.37062 0.950004 1.02262C1.31 0.674625 1.73 0.500626 2.21 0.500626H9.05ZM5.63 17.4206C5.99 17.4206 6.29 17.3306 6.53 17.1506C6.77 16.9706 6.89 16.7546 6.89 16.5026C6.89 16.2506 6.77 16.0406 6.53 15.8726C6.29 15.7046 5.996 15.6206 5.648 15.6206C5.3 15.6206 5 15.7106 4.748 15.8906C4.496 16.0706 4.37 16.2806 4.37 16.5206C4.37 16.7606 4.496 16.9706 4.748 17.1506C5 17.3306 5.294 17.4206 5.63 17.4206ZM9.41 14.7206V2.84063H1.85V14.7206H9.41Z" fill="#FF0000"/>
</svg>
